<?xml version="1.0" encoding="UTF-8"?>
<!DOCTYPE svg PUBLIC "-//W3C//DTD SVG 1.1//EN" "http://www.w3.org/Graphics/SVG/1.1/DTD/svg11.dtd">
<!-- Creator: CorelDRAW 2020 (64-Bit) -->
<svg xmlns="http://www.w3.org/2000/svg" xml:space="preserve" width="143.933mm" height="143.933mm" version="1.1" style="shape-rendering:geometricPrecision; text-rendering:geometricPrecision; image-rendering:optimizeQuality; fill-rule:evenodd; clip-rule:evenodd"
viewBox="0 0 14393.32 14393.32"
 xmlns:xlink="http://www.w3.org/1999/xlink"
 xmlns:xodm="http://www.corel.com/coreldraw/odm/2003">
 <defs>
  <style type="text/css">
   <![CDATA[
    .str0 {stroke:#1BA388;stroke-width:20;stroke-miterlimit:22.9256}
    .str1 {stroke:#262125;stroke-width:20;stroke-miterlimit:22.9256}
    .fil2 {fill:#1BA388}
    .fil0 {fill:#1BA388;fill-rule:nonzero}
    .fil1 {fill:#262125;fill-rule:nonzero}
   ]]>
  </style>
 </defs>
 <g id="Layer_x0020_1">
  <metadata id="CorelCorpID_0Corel-Layer"/>
  <path class="fil0" d="M13046.09 8032.08l-400.11 0 0 622.71c0,375.74 -184.33,563.64 -552.92,563.64l-6707.54 0 0 -563.64 6474.92 0c133.31,0 200.41,-65.32 200.41,-195.94l0 -426.77 -723.8 0c-305.08,0 -457.18,-139.57 -457.18,-419.61l0 -843.69c0,-281.82 152.99,-422.29 458.97,-422.29l848.16 0c305.99,0 458.98,140.47 458.98,422.29l0 699.64 404.82 0 -4.71 563.66z"/>
  <path class="fil0" d="M13046.09 8043.21l-388.98 0 0 611.58c0,190.87 -47.18,334.39 -141.45,430.51 -94.34,96.16 -235.23,144.26 -422.6,144.26l-6707.54 0 0 -22.26 6707.54 0c181.2,0 316.82,-45.88 406.77,-137.57 89.99,-91.74 135.02,-230.08 135.02,-414.94l0 -633.84 11.13 0 389.11 0 4.53 -541.39 -404.77 0 0 -710.78c0,-137.67 -37.06,-240.53 -111.14,-308.66 -74.34,-68.36 -186.59,-102.5 -336.71,-102.5l-848.16 0c-298.56,0 -447.84,136.78 -447.84,411.16l0 843.69c0,136.77 36.83,238.97 110.58,306.65 74,67.92 185.79,101.83 335.47,101.83l734.93 0 0 437.9c0,68.37 -17.9,120 -53.55,154.85 -35.6,34.81 -88.32,52.22 -157.99,52.22l-6474.92 0 0 -22.27 6474.92 0c63.68,0 111.25,-15.3 142.52,-45.87 31.13,-30.43 46.76,-76.76 46.76,-138.93l0 -415.64 -712.67 0c-155.4,0 -272.22,-35.88 -350.52,-107.75 -78.57,-72.1 -117.8,-179.74 -117.8,-322.99l0 -843.69c0,-289.23 156.71,-433.42 470.11,-433.42l848.16 0c155.86,0 273.13,36.12 351.76,108.42 78.89,72.56 118.35,180.85 118.35,325l0 688.51 404.87 0c-1.74,195.3 -3.32,390.62 -4.89,585.92l-11 0z"/>
  <path class="fil0" d="M14220.12 7596.69c-42.56,290.04 -234.48,435.39 -575.14,435.39l-645.07 0 0 -563.66 293.46 0c137.78,1.8 223.59,-5.56 256.77,-20.57 69.7,-31.51 104.68,-110.04 104.68,-235.31l0 -596.8 565.3 287.53 0 693.42z"/>
  <path class="fil0" d="M14220.12 7656.67c-23.19,99.49 -66.32,179.92 -129.35,241.22 -99.57,96.83 -248.22,145.32 -445.79,145.32l-656.2 0 0 -585.92c37.49,0 294.07,-3.5 304.73,0.05 67.63,0.88 122.81,-0.48 165.37,-3.89 42.2,-3.37 71.14,-8.69 86.7,-15.73 32.28,-14.59 56.63,-40.26 72.92,-76.91 16.78,-37.72 25.19,-87.16 25.19,-148.27l0 -614.95c192.1,97.83 384.25,195.54 576.43,293.21l0 765.87zm-144.83 225.3c95.13,-92.51 142.79,-231.9 142.79,-418.02l0 -549.23 -552.12 -280.83 0 578.65c0,64.13 -9.09,116.58 -27.2,157.3 -18.59,41.82 -46.65,71.23 -84.05,88.14 -17.92,8.1 -49.34,14.06 -94.1,17.65 -42.71,3.41 -98.51,4.77 -167.24,3.88l-282.32 0.05 0 541.39 633.93 0c191.61,0 335.1,-46.38 430.31,-138.98z"/>
  <path class="fil0 str0" d="M13684.35 8619.89c0,79.62 -27.74,147.64 -84.1,203.98 -55.46,55.46 -124.36,83.21 -203.99,83.21 -78.73,0 -146.52,-28.85 -202.2,-84.99 -56.14,-56.58 -84.1,-123.47 -84.1,-202.2 0,-78.73 27.96,-145.62 84.1,-202.21 55.68,-56.13 123.47,-84.98 202.2,-84.98 79.63,0 148.52,27.74 203.99,83.2 56.36,56.36 84.1,123.46 84.1,203.99z"/>
  <path class="fil1 str1" d="M12060.85 7327.07l0 -280.94c0,-90.36 -50.99,-135.98 -152.99,-135.98l-297.92 0c-103.79,0 -155.69,45.62 -155.69,135.98l0 280.94c0,93.93 51.9,141.35 155.69,141.35l297.92 0c102,0 152.99,-47.42 152.99,-141.35z"/>
  <g id="_2587903337936">
   <polygon class="fil0" points="5722.81,8297.79 5385.52,8297.79 5385.52,7734.13 5722.81,7734.13 "/>
   <polygon class="fil0" points="5722.81,8308.92 5385.52,8308.92 5385.52,8286.66 5711.68,8286.66 5711.68,7745.26 5385.52,7745.26 5385.52,7723 5733.94,7723 5733.94,8308.92 "/>
   <path class="fil0 str0" d="M10533.7 7734.13c-1.79,375.64 -195.1,563.66 -585.12,563.66l-2834.36 0 0 -563.66 644.16 0 0 -921.05 574.4 0 0 921.05 520.71 0 0 -767.85 574.38 0 0 767.85 273.77 0c171.78,0 257.67,-84.99 257.67,-255.88l0 -394.17 577.51 -0.46 -3.12 650.51z"/>
   <polygon class="fil0 str0" points="7195.76,8297.79 5607.63,8297.79 5598.21,7734.13 7271.16,7734.13 "/>
  </g>
  <g id="_2587903336160">
   <polygon class="fil0" points="6019.46,9218.43 1335.4,9218.43 1335.4,8654.79 6019.46,8654.79 "/>
   <polygon class="fil0" points="6019.46,9229.56 1324.27,9229.56 1324.27,8643.65 6019.46,8643.65 6019.46,8665.92 1346.53,8665.92 1346.53,9207.3 6019.46,9207.3 "/>
   <path class="fil2 str0" d="M5015.34 6217.98l0 -577.48c22.73,-15.22 73.34,-36.5 100.09,-45.53 81.78,-27.59 156.72,-28.88 239.95,-8.32 21.25,5.24 61.36,18.62 79.94,28.45l0 592.72c-13.06,-3.04 -25.61,-7.25 -39.96,-10.83 -14.53,-3.63 -27.71,-7.3 -42.77,-9.75 -86.73,-14.15 -150.32,-14.09 -237.22,3.77l-100.03 26.97zm-657.08 -10.16l0 -592.72c18.31,-9.69 62.61,-24.04 83.39,-28.38 93.42,-19.48 171.95,-17.22 262.34,16.27 21.53,7.98 30.13,12.89 50,22.82 7.56,3.77 17.25,11.36 24.25,13l0 579.17 -51.4 -14.64c-102.46,-29.89 -227.59,-40.86 -331.54,-7.59 -6.42,2.06 -11.91,3.39 -18.21,5.51 -5.41,1.8 -13.53,5.33 -18.83,6.56zm538.53 -692.64c-10.88,-7.28 -24.19,-13.59 -35.64,-20.25 -54.44,-31.63 -150.74,-62.11 -212.56,-71.94 -22.32,-3.55 -80.21,-9.38 -104.02,-9.52l-79.32 5.49c-75.61,9.3 -149.34,31.83 -217.68,65.13l-55.27 31.09 0 939.89c24.01,-12.7 40.29,-24.38 72.82,-40.64l59.74 -26.63c7.41,-2.97 13.61,-4.8 21.05,-7.74 57.64,-22.82 141.26,-35.07 202.02,-35.07 120,0 215.8,36.93 312.74,88.63 11.94,6.37 25.46,14.31 36.12,21.45 10.65,-7.14 23.18,-14.29 35.02,-20.86 12.95,-7.19 24.8,-13.28 37.8,-19.78 145.46,-72.73 276.93,-87.04 432.86,-48.45 24.79,6.14 62.81,19.87 85.39,29.77l113.42 59.32 0 -939.89c-93.81,-62.81 -230.74,-110.08 -347.16,-110.08 -96.53,0 -167.28,19.05 -245.34,51.04 -29.33,12.01 -85.77,41.49 -111.99,59.04z"/>
   <g>
    <polygon class="fil0" points="6019.46,8297.79 5529.31,8297.79 5529.31,7734.13 6019.46,7734.13 "/>
    <polygon class="fil0" points="6019.46,8308.92 5518.18,8308.92 5518.18,7723 6019.46,7723 6019.46,7745.26 5540.44,7745.26 5540.44,8286.66 6019.46,8286.66 "/>
    <polygon class="fil0 str0" points="5770.23,8297.79 3946.97,8297.79 3946.97,7734.13 4596.52,7734.13 4596.52,6617.57 4893.93,6483.22 5170.9,6617.57 5170.9,7734.13 5741.97,7734.13 "/>
    <path class="fil0 str0" d="M4139.47 8297.79l-652.91 0c-382.84,0 -574.38,-186.1 -574.38,-558.29l0 -2575.74 574.38 0.01 0 2316.28c0,169.04 96.63,254.08 290.78,254.08l494.4 0 -132.27 563.66z"/>
   </g>
   <path class="fil0 str0" d="M2470.76 8025.91c0,320.19 -107.94,596.22 -324.76,828.49 -222.42,238.28 -492.98,356.97 -810.6,356.97 -320.3,0 -594.32,-109.84 -821.31,-330.14 -227.45,-220.71 -340.88,-490.28 -340.88,-807.9l0 -1097.83 579.09 -303.67 -4.71 1387.19c-0.53,159.18 55.51,294.39 167.31,406.19 110.9,110.91 246.04,166.41 406.19,166.41 159.25,0 295.49,-55.28 407.09,-166.41 112.02,-111.59 168.19,-246.93 168.19,-406.19l0 -682.86 574.39 -358.15 0 1007.9z"/>
   <path class="fil0 str0" d="M1622.6 6839.36c0,78.73 -28.43,146.98 -85,204 -56.12,56.56 -123.47,84.99 -202.2,84.99 -78.73,0 -146.08,-28.43 -202.19,-84.99 -56.58,-57.02 -85,-125.27 -85,-204 0,-77.83 28.88,-145.62 85,-201.3 56.57,-56.11 123.46,-84.1 202.19,-84.1 78.73,0 145.63,27.97 202.2,84.1 56.13,55.67 85,123.47 85,201.3z"/>
  </g>
 </g>
</svg>
