<svg xmlns="http://www.w3.org/2000/svg" xmlns:xlink="http://www.w3.org/1999/xlink" width="1338.91" height="1080" viewBox="0 0 1338.91 1080"><defs><style>.a{fill:#c2c2c2;}.a,.b,.c,.e,.f,.h,.l,.x{opacity:0.1;}.b{fill:#59b3a1;}.c{fill:#159e84;}.d{fill:#a8a8a8;}.e,.r{fill:#fff;}.g{fill:#464353;}.h,.i{fill:#262125;}.j{fill:url(#a);}.k{fill:#1d2025;}.m{opacity:0.06;}.n{fill:#fbbebe;}.o{fill:#1b2d2b;}.p{fill:#116a59;}.q{fill:#153530;}.s{fill:#fed253;}.t{fill:url(#b);}.u{fill:#d6d8e1;}.v{fill:#b98f19;}.w{fill:#444176;}.x{fill:none;stroke:#000;stroke-miterlimit:10;}.y{opacity:0.05;}.z{opacity:0.2;}</style><linearGradient id="a" y1="0.5" x2="1" y2="0.5" gradientUnits="objectBoundingBox"><stop offset="0" stop-color="#7e631d"/><stop offset="0.54" stop-color="gray" stop-opacity="0.122"/><stop offset="1" stop-color="gray" stop-opacity="0.102"/></linearGradient><linearGradient id="b" x1="12.106" y1="0.5" x2="13.106" y2="0.5" gradientUnits="objectBoundingBox"><stop offset="0" stop-color="gray" stop-opacity="0.251"/><stop offset="0.54" stop-color="gray" stop-opacity="0.122"/><stop offset="1" stop-color="gray" stop-opacity="0.102"/></linearGradient></defs><g transform="translate(0 0)"><ellipse class="a" cx="605.062" cy="540" rx="605.062" ry="540" transform="translate(83.675 0)"/><ellipse class="b" cx="223.098" cy="34.58" rx="223.098" ry="34.58" transform="translate(0 781.646)"/><ellipse class="b" cx="86.775" cy="17.926" rx="86.775" ry="17.926" transform="translate(243.553 979.697)"/><ellipse class="c" cx="86.775" cy="17.926" rx="86.775" ry="17.926" transform="translate(836.486 910.731)"/><ellipse class="b" cx="141.109" cy="23.905" rx="141.109" ry="23.905" transform="translate(487.702 883.726)"/><ellipse class="b" cx="294.32" cy="46.098" rx="294.32" ry="46.098" transform="translate(750.269 743.2)"/><path class="d" d="M132.985,610.4a81.9,81.9,0,0,0,4.267,82.222c2.594,3.891,4.981,6.693,6.887,7.432,9.144,3.593,27.459,12.426,27.459,12.426l44.1-17.329s7.16-37.875,13.931-70.392h0c4.618-22.18,9.08-41.857,10.908-45.307,4.566-8.5,0-100.991,0-100.991s-44.1-2.957-56.228,31.039l-5.305,10.377Z" transform="translate(-71.983 98.437)"/><path class="e" d="M179.514,620.622c26.811,30.728,38.121,4.151,38.121,4.151h0c4.618-22.18,9.08-41.857,10.908-45.307,4.566-8.5,0-100.991,0-100.991s-44.1-2.957-56.228,31.039l-5.305,10.377C163.612,547.09,160.252,598.507,179.514,620.622Z" transform="translate(-59.962 98.44)"/><path class="d" d="M180.59,730.291l155.65-17.977,27.77-182.733-21-47.46a192.3,192.3,0,0,0-36.318-54.789c-10.571-11.142-23.347-21.856-36.785-27.239a55.192,55.192,0,0,0-5.616-1.92,14.54,14.54,0,0,0-12.971,2.3c-19.2,13.606-26.058,71.456-28.276,99.3a310.775,310.775,0,0,1-4.631,34.1Z" transform="translate(-55.149 74.417)"/><path class="e" d="M268.032,527.612,235.6,607.383c16.992-12.426,42.168-80.095,42.168-80.095l22.556,77.15-17.977-81.314a254.319,254.319,0,0,0,2.283-53.362c-1.427-20.416-20.585-53.18-30.987-69.679a55.223,55.223,0,0,0-5.616-1.92,14.54,14.54,0,0,0-12.971,2.3c8.172,16.408,28.6,57.435,34.827,69.627C277.786,485.444,268.032,527.612,268.032,527.612Z" transform="translate(-38.968 74.414)"/><path class="d" d="M280.89,707.755h84.453a25.617,25.617,0,0,0,25.591-26.914c-1.868-36.215-6.6-100.783-17.861-141.771-6.083-22.115-13.152-33.724-19.638-39.444a19.158,19.158,0,0,0-11.168-5.253,14.656,14.656,0,0,0-9.08,2.205c-15.682,15.033-34,94.142-34,94.142Z" transform="translate(-25.352 103.166)"/><path class="e" d="M355.607,612.32c3.476,9.637,4.851,20.753,0,31.584l-18.821,9.3s-50.586-21.441-44.438-65.386c0,0,1.66-9.08,19.08-8.379a49.38,49.38,0,0,1,44.179,32.881Z" transform="translate(-22.102 128.442)"/><path class="e" d="M330.963,522.066c-.584-15.409,7.783-20.753,14.7-22.452a19.159,19.159,0,0,0-11.168-5.253,29.651,29.651,0,0,0-9.741,15.565l-17.64,85.983S331.949,547.89,330.963,522.066Z" transform="translate(-17.563 103.178)"/><path class="d" d="M294.371,568.14l41.818,57.2,7.251,47.214-26.875,13.269-38.744,8.561a37.237,37.237,0,0,1-11.375.739l-105.725-9.3L175.1,652.476l49.678-69.744Z" transform="translate(-61.052 125.097)"/><path class="e" d="M274.9,553.005s28.536,1.959,17.822,50.988-120.953,52.96-120.953,52.96S195.2,615.447,231.228,585.7c4.047-3.333,7.951-6.81,11.674-10.519C251.19,566.9,267.04,552.331,274.9,553.005Z" transform="translate(-57.77 120.594)"/><path class="f" d="M271.07,581.5s38.666,35.19,35.021,89.343" transform="translate(-28.27 129.066)"/><path class="f" d="M331.555,496.06s-40.573,53.959-45.125,136.985" transform="translate(-23.707 103.683)"/><path class="f" d="M220.592,478.43S240.23,567.6,191.2,634.819" transform="translate(-51.997 98.446)"/><path class="g" d="M492.323,783.48H703.928A11.855,11.855,0,0,0,714.3,766.009L608.554,569.527a11.842,11.842,0,0,0-20.857,0l-105.8,196.482a11.855,11.855,0,0,0,10.429,17.472Zm119.266-35.9H584.662V720.663h26.927Zm0-44.866H584.662V648.869h26.927Z" transform="translate(33.941 123.658)"/><path class="h" d="M492.323,783.48H703.928A11.855,11.855,0,0,0,714.3,766.009L608.554,569.527a11.842,11.842,0,0,0-20.857,0l-105.8,196.482a11.855,11.855,0,0,0,10.429,17.472Zm119.266-35.9H584.662V720.663h26.927Zm0-44.866H584.662V648.869h26.927Z" transform="translate(33.941 123.658)"/><path class="i" d="M492.323,788.48H703.928A11.855,11.855,0,0,0,714.3,771.009L608.554,574.527a11.842,11.842,0,0,0-20.857,0l-105.8,196.482a11.855,11.855,0,0,0,10.429,17.471Zm119.266-35.9H584.662V725.663h26.927Zm0-44.866H584.662V653.87h26.927Z" transform="translate(33.941 125.143)"/><path class="j" d="M493.006,783.14a14.528,14.528,0,0,0-3-1.453c-3.476-1.3-7.186-1.634-10.662-2.879a15.269,15.269,0,0,1-5.357-3.165c-.259-.259-.506-.519-.739-.791,1.3-.817,2.477-1.634,3.762-2.4a44.567,44.567,0,0,0-15.643-15.565c2.088-3.074,6.8-2.828,9.546-5.305a9.079,9.079,0,0,0,2.594-5.1c1.025-5.1-.246-10.377-1.518-15.4-2.464-9.819-4.955-19.7-8.95-28.99a114.256,114.256,0,0,1-4.851-11.751c-3.359-11.181-1.012-23.347-3.554-34.775-.817-3.671-2.14-7.458-1.219-11.09,1.414-5.629,7.7-8.963,9.08-14.592,4.981-20.04,5.876-40.832,8.7-61.287a78.878,78.878,0,0,0,1.051-11.765c0-4.138-.739-8.236-1.038-12.361-.8-11.583,1.518-23.153,2.516-34.723a36.319,36.319,0,0,1,4.708,11.609,46.866,46.866,0,0,1,.272,11.518,54.1,54.1,0,0,1-.817,7.666c-.636,3.009-1.751,5.889-2.49,8.9a27.512,27.512,0,0,0,1.232,17.848c1.764,3.891,5.642,7.5,9.676,6.33,2.789-.8,4.475-3.58,5.72-6.213,3.891-8.249,6.057-17.809,3.437-26.577-1.725-5.837-5.513-11.116-5.863-17.212a44.489,44.489,0,0,1,.571-7.277c1.621-14.086-1.881-28.237-2.659-42.4-.208-3.749.13-8.405-.713-12.387-.1-.48-.221-.96-.363-1.414a3.032,3.032,0,0,1,.934.428,8.456,8.456,0,0,0-.182-7.251,18.451,18.451,0,0,1-1.219-2.283c-.493-1.3-.4-2.8-1.012-4.047a17.271,17.271,0,0,0-1.3-1.881c-1.673-2.426-1.764-5.564-1.8-8.509q-.3-23.036-1.3-46.02c-.35-7.783-.791-15.747-3.515-23.049a34.554,34.554,0,0,0-12.193-16.175,28.429,28.429,0,0,0-2.737-1.712,9.5,9.5,0,0,0,.778-3.5,8.381,8.381,0,0,0,0-1.141l-.078-.649h0a27.367,27.367,0,0,0-2.594-7.782,21.871,21.871,0,0,1-2.477-8.509,13.206,13.206,0,0,1,.091-1.608h0c.441-3.736,2.387-7.238,3.074-10.973a18.821,18.821,0,0,0,.285-3.515c0-.4,0-.817,0-1.232a35.357,35.357,0,0,0-4.164-13.1c-.649-1.3-1.3-2.594-2.023-3.891-.337-2.426-.713-4.851-1.089-7.264-.208-1.4-.428-2.8-.726-4.19q-.22-1.038-.506-2.023c2.01-1.894.843-4.669-.441-7.238-2.477-4.877-1.959-10.7-3.009-16.071a48.56,48.56,0,0,0-3.813-10.792,24.049,24.049,0,0,0-4.138-6.8,25.372,25.372,0,0,0-5.357-3.891,17.057,17.057,0,0,0-5.318-2.4c-1.18-.233-2.387-.22-3.554-.493a11.261,11.261,0,0,1-2.179-.791,14.825,14.825,0,0,0-4.656-1.7,10.377,10.377,0,0,0-4.488.856,16.513,16.513,0,0,1-4.825,1.3h-1.829a4.059,4.059,0,0,0-2.477.6,9.365,9.365,0,0,0-1.064,1.09,14.361,14.361,0,0,1-3.126,2.14A30.806,30.806,0,0,0,387.294,262.4a13.047,13.047,0,0,1-.376,4.267c-.376,1.09-1.115,2.036-1.427,3.152a8.845,8.845,0,0,0-.143,2.957c.1,1.518.259,3.022.428,4.54h0a9.547,9.547,0,0,0-1.894,4.19h0a5.707,5.707,0,0,0-.117.8v.1h0c-.143,2.711,1.193,5.188,1.972,7.782a27.654,27.654,0,0,1-.389,15.267c-.947,3.411-2.3,6.939-2.594,10.377h0v.233a12.544,12.544,0,0,0,.6,5.188c.428,1.18,1.064,2.283,1.453,3.476,1.375,4.229-.623,8.665-3.269,12.374h0c-.415.584-.843,1.141-1.3,1.686h.065l-.065.065,2.7,1.907c-.791.415-1.582.869-2.387,1.3a24.541,24.541,0,0,0-8.794,3.256,35.752,35.752,0,0,0-7.134,4.747,30.261,30.261,0,0,0-5.629,7.782,97.817,97.817,0,0,0-4.773,10.065,31.519,31.519,0,0,0-2.438,8.729c-1.115,2.374-2.037,4.929-3.061,7.225-.519,1.18-1.025,2.361-1.531,3.541L302.543,278.1l-6.926,2.879.545,1.3-1.44.61,1.959,4.773c-.285.195-.571.389-.843.6l-.363.285-.726.571-.363.3-.739.623-.272.233-.921.843h0c-.986.895-1.933,1.842-2.854,2.789l-2.374,2.451-.454.48-.791.8-.441.454-1.129,1.128-.078.078-.7.674-.441.415c-.182.182-.376.35-.571.519l-.545.506-.882.752-.259.233-1.206.96a33.817,33.817,0,0,1-5.188,3.334c-7.1,3.671-14.605,6.745-21.531,10.675a62,62,0,0,0-10.662,7.471c-4.579,4.06-8.457,9.08-13.762,12.024l-.584.311c-9.391,4.825-20.455,1.933-31.13,1.725-1.6,0-3.165,0-4.721.1-8.664.674-16.59,4.19-24.255,8.47-5.4,3.022-10.662,6.421-15.954,9.495-3.346,1.933-6.706,4.034-10.078,6.187-8.561,5.435-17.225,11.142-26.188,15.254-8.327,3.813-16.862,6.239-25.942,5.772h-.117a21.644,21.644,0,0,1-2.594-.221c-.843,6.81,4.6,12.3,8.236,18.289a18.535,18.535,0,0,1,3.074,8.664,15.566,15.566,0,0,1-.259,3.476c-.726,4.2-2.672,8.327-2.14,12.556a14.54,14.54,0,0,0,2.763,6.823c2.309,3.295,5.513,6.226,7.692,9.663,3.295,5.188,4.151,11.505,5.435,17.614a37.058,37.058,0,0,0,4.267,12.206c2.8,4.514,7.082,7.783,11.1,11.246.739.636,1.466,1.3,2.166,1.946.519.467,1.025.96,1.5,1.466,4.708,4.812,8.211,12.231,5.37,18.25-.091.208-.195.389-.3.584a5.192,5.192,0,0,0,.713.428c3.619,1.764,8.159-1.064,11.129-4.06,1.466-1.466,2.854-3.022,4.2-4.6,3.619-4.021,6.939-8.379,10.377-12.556.934-1.128,1.868-2.231,2.828-3.321A47.991,47.991,0,0,1,178,472.243a47.077,47.077,0,0,1,7.86-3.191c4.021-1.3,8.172-2.257,12.206-3.528a100.276,100.276,0,0,0,16.071-6.745A247.174,247.174,0,0,0,240.075,442.7l1.3-.843a44.462,44.462,0,0,0,7.718-6.161c.415-.454.817-.921,1.193-1.4,2.023-2.594,3.334-5.668,5.188-8.366a26.915,26.915,0,0,1,7.277-7.017c8-5.383,18.626-7.432,28.134-10.377h.1a109.346,109.346,0,0,0,44.321-26.318l7.108,17.407q-1.1,3.087-2.088,6.239c-1.582,5.188-2.88,10.532-5.98,14.916a11.128,11.128,0,0,0-2.257,4.008,12.972,12.972,0,0,1-.532,3.217c-.441.882-1.362,1.466-1.738,2.374-.545,1.3.169,2.97-.558,4.19a6.59,6.59,0,0,1-1.232,1.3c-1.855,1.647-2.348,4.241-2.348,6.6a23.126,23.126,0,0,1-.584,7.16,17.056,17.056,0,0,1,1.673-.869,7.779,7.779,0,0,0-.143,1.3,14.448,14.448,0,0,0,.454,3.645,28.785,28.785,0,0,0,3.788,7.575,53.839,53.839,0,0,0,4.06,5.837,53.184,53.184,0,0,0,8.587,7.679l13.075,10.091-1.3,5.461c-2.854,11.44-5.733,23.023-5.876,34.827a150.063,150.063,0,0,0,1.051,16.719l1.128,11.388c.908,9.17,1.816,18.341,2.815,27.511.636,5.8,1.3,11.674,3.346,17.147,3.087,8.314-.324,17.705.986,26.5,1.038,6.888,3.087,14.008,1.025,20.663-.83,2.594-2.283,5.084-3.346,7.653-2.659,6.381-2.931,13.477-3.152,20.39a86.663,86.663,0,0,0,.661,18.159c1.116,6.2,3.58,12.283,3.1,18.574-.674,8.937-7.212,16.577-8,25.514-.636,7.121,2.464,14.008,5.8,20.325,2.452,4.657-.973,10.675-2.27,15.8-2.594,10.052,1.712,20.559,6.965,29.47a1.453,1.453,0,0,0,.661.7c.6.22,1.154-.376,1.544-.882a10.628,10.628,0,0,1,.778-.921c0,.4.078.8.1,1.193,0,.843.065,1.686.065,2.594a26.073,26.073,0,0,0,1.764,9.6,16.972,16.972,0,0,0,.726,1.738,8.016,8.016,0,0,0,1.3,2.088,7.925,7.925,0,0,0,5.188,2.179c4.306.467,8.639-.428,12.971-.8,4.566-.389,9.144-.22,13.723-.324a1.984,1.984,0,0,0,1.025-.22,1.751,1.751,0,0,0,.584-.934,10.376,10.376,0,0,0,.22-5.111,36.23,36.23,0,0,0-.973-4.06c-.61-2.14-1.167-4.293-1.7-6.485-.1-.4-.195-.8-.285-1.206l.208.091q4.19-9.417,8.392-18.834c1.414-3.178,2.854-6.615,2.153-10.026-.506-2.438-2.062-4.5-3.165-6.732-2.594-5.266-2.7-11.414-2.737-17.3l-.156-33.361c6.485-8.249,10.493-18.068,12.971-28.315a91.585,91.585,0,0,1,.765,44.1,41.086,41.086,0,0,0-1.232,6.719c-.506,9.248,6.693,17.082,8.613,26.136a5.889,5.889,0,0,1,.143,2.127,7.978,7.978,0,0,1-1.064,2.465c-3.45,6.317-3.074,13.944-2.594,21.129l1.518.246a4.021,4.021,0,0,0,1.608,1.582h0a7.935,7.935,0,0,0,2.01.83,49.528,49.528,0,0,0,7.562,1.154c3.658.363,7.328.726,11,.96,1.453.091,2.905.169,4.358.207a43.556,43.556,0,0,1,6.1.429,44.1,44.1,0,0,1,6.478,1.88c9.456,3.165,20.04,4.968,29.2,1.025a13.153,13.153,0,0,0,5.331-3.774,6.278,6.278,0,0,0-1.569-9.754ZM367.552,413.382c1.375,2.737,2.75,5.461,3.891,8.3,2.244,5.5,3.606,11.674,2.179,17.407-.415,1.686-3.126,2.983-3.113,4.721a3.889,3.889,0,0,0-.208.4l-8.47-20.753a74.044,74.044,0,0,1,5.72-10.078Zm-9.3,44.1a35.894,35.894,0,0,1-4.592-7.925c-.156-.35-.324-.687-.48-1.038a3.112,3.112,0,0,0,1.232-.921c1.3-1.634.6-4.021.791-6.122a13.229,13.229,0,0,1,2.062-5.188l7.951,19.456q-1.206,3.165-2.257,6.395a45.392,45.392,0,0,1-4.708-4.657Z" transform="translate(-82.973 24.668)"/><path class="k" d="M318.513,274.527c-.143,2.711,1.206,5.188,2,7.782a27.537,27.537,0,0,1-.376,15.228c-1.453,5.188-3.891,10.675-2.036,15.747.428,1.193,1.077,2.283,1.466,3.476,1.608,4.929-1.375,10.117-4.644,14.151l12.828,8.989a14.747,14.747,0,0,0,6.485,3.1c2.4.285,5.188-1,5.681-3.359.169-.8,0-1.647.156-2.464a6.693,6.693,0,0,1,3.593-4.981,11.752,11.752,0,0,1,6.213-1.154c7.873.428,14.566,5.6,21.726,8.924a87.4,87.4,0,0,0,14.618,4.851c2.841.739,5.992,1.414,8.561,0s3.749-4.7,3.554-7.666a25.07,25.07,0,0,0-2.724-8.444,21.48,21.48,0,0,1-2.5-8.5c0-4.358,2.387-8.327,3.191-12.608,1.128-6.083-1.167-12.27-3.969-17.8s-6.2-10.844-7.562-16.862a24.645,24.645,0,0,0-1.414-5.331,12.141,12.141,0,0,0-2.594-3.476c-4.812-4.76-11.674-7.017-18.393-7.51s-13.5.61-20.17,1.764a42.173,42.173,0,0,0-7.484,1.777,47.537,47.537,0,0,0-9.845,5.331C321.833,267.6,318.707,270.675,318.513,274.527Z" transform="translate(-15.243 32.517)"/><g class="l" transform="translate(299.638 306.189)"><path d="M375.17,306.921a5.7,5.7,0,0,0,.078,1.154c.4-3.8,2.4-7.367,3.113-11.168a18.445,18.445,0,0,0,.247-4.618,12.654,12.654,0,0,1-.247,2.023C377.544,298.594,375.118,302.563,375.17,306.921Z" transform="translate(-296.982 -263.041)"/><path d="M320.559,283.567a23.232,23.232,0,0,0-.869-7.782,45.119,45.119,0,0,1-1.881-6.044c0,.272-.1.532-.117.8-.143,2.711,1.206,5.188,2,7.783A21.9,21.9,0,0,1,320.559,283.567Z" transform="translate(-314.061 -269.74)"/><path d="M398.227,319.985a7.419,7.419,0,0,1-3.476,5.72c-2.594,1.414-5.72.739-8.561,0a86.275,86.275,0,0,1-14.618-4.864c-7.16-3.308-13.853-8.483-21.726-8.911a11.752,11.752,0,0,0-6.213,1.154,6.693,6.693,0,0,0-3.593,4.981c-.091.817,0,1.66-.156,2.465-.506,2.361-3.282,3.645-5.681,3.359a14.746,14.746,0,0,1-6.485-3.1L316.187,312.7c-.428.584-.856,1.154-1.3,1.686l12.828,9a14.748,14.748,0,0,0,6.485,3.1c2.4.285,5.188-1,5.681-3.359.169-.8,0-1.647.156-2.464a6.693,6.693,0,0,1,3.593-4.981,11.751,11.751,0,0,1,6.213-1.154c7.873.428,14.566,5.6,21.726,8.911a86.281,86.281,0,0,0,14.618,4.864c2.841.739,5.992,1.414,8.561,0s3.749-4.7,3.554-7.666C398.292,320.413,398.253,320.206,398.227,319.985Z" transform="translate(-314.89 -257.22)"/><path d="M318.988,304.915a10.044,10.044,0,0,1,.35,1.6,9.4,9.4,0,0,0-.35-4.19c-.389-1.193-1.038-2.283-1.466-3.476a10.839,10.839,0,0,1-.6-2.685,12.191,12.191,0,0,0,.6,5.279C317.951,302.632,318.6,303.735,318.988,304.915Z" transform="translate(-314.306 -261.891)"/></g><path class="i" d="M338.981,688.44a1.7,1.7,0,0,1-.6.934,1.985,1.985,0,0,1-1.025.221c-4.618.1-9.235,0-13.84.324-4.358.376-8.729,1.3-13.075.8a6.706,6.706,0,0,1-6.485-4.267,16.963,16.963,0,0,1-.726-1.738,25.824,25.824,0,0,1-1.777-9.6c0-.869,0-1.712,0-2.594a19.67,19.67,0,0,0-.376-2.828,4.293,4.293,0,0,1,.13-3.282c1.842-3.359,6.291-4.034,9.715-4.293A80.225,80.225,0,0,1,334.6,663.86c.61,2.983,1.3,5.941,2.023,8.9q.8,3.256,1.712,6.485a36.3,36.3,0,0,1,.986,4.06A10.377,10.377,0,0,1,338.981,688.44Z" transform="translate(-19.433 152.949)"/><path class="m" d="M338.427,683.532a1.7,1.7,0,0,1-.6.934,1.983,1.983,0,0,1-1.025.221c-4.618.1-9.235,0-13.84.324-4.358.376-8.729,1.3-13.075.8a6.706,6.706,0,0,1-6.485-4.267,16.963,16.963,0,0,1-.726-1.738h1.66c5.461,0,10.934-.195,16.4-.195a41.91,41.91,0,0,0,4.942-.272c1.634-.195,2.97-.467,4.462-.649a61.122,61.122,0,0,1,6.719-.272H338.7A10.377,10.377,0,0,1,338.427,683.532Z" transform="translate(-18.879 157.857)"/><path class="i" d="M420.957,668.505a13.268,13.268,0,0,1-5.37,3.775c-9.235,3.891-19.91,2.14-29.444-1.025a44.862,44.862,0,0,0-6.55-1.881,44.1,44.1,0,0,0-6.135-.428c-1.466,0-2.931-.117-4.4-.207-3.71-.234-7.406-.6-11.09-.96a50.09,50.09,0,0,1-7.627-1.154,8.106,8.106,0,0,1-2.036-.83h0a3.126,3.126,0,0,1-1.868-2.789c.1-1.647,1.816-2.594,3.32-3.307,13.347-5.772,27.848-8.275,42.246-10.286a16.927,16.927,0,0,0,4.241-1.3c1.621-.648,1.79.415,2.594,1.608a10,10,0,0,0,1.3,1.53,15.436,15.436,0,0,0,5.4,3.165c3.5,1.3,7.251,1.647,10.753,2.879a14.723,14.723,0,0,1,3.022,1.453,6.252,6.252,0,0,1,1.583,9.754Z" transform="translate(-5.879 148.797)"/><path class="m" d="M415.776,666.024a13.269,13.269,0,0,1-5.37,3.775c-9.235,3.891-19.91,2.14-29.444-1.025a44.871,44.871,0,0,0-6.55-1.881,44.1,44.1,0,0,0-6.135-.428c-1.466,0-2.931-.117-4.4-.208,1.193-1.128,2.413-2.231,3.658-3.295a10.9,10.9,0,0,1,3.074-2.023,8.9,8.9,0,0,1,4.371-.3c7.419,1.025,14.086,6.226,21.57,5.772a26.54,26.54,0,0,0,9.923-3.2,17.318,17.318,0,0,0,6.485-4.618,7.485,7.485,0,0,0,1.206-2.322,6.252,6.252,0,0,1,1.582,9.754Z" transform="translate(-0.698 151.278)"/><path class="n" d="M408.776,515.363c-1.3,2.594-2.957,5.409-5.759,6.213-4.073,1.167-7.99-2.49-9.767-6.33a27.343,27.343,0,0,1-1.3-17.848c.739-3,1.868-5.876,2.5-8.885a54.093,54.093,0,0,0,.83-7.666,46.865,46.865,0,0,0-.272-11.518c-2.088-11.142-11.674-19.456-14.864-30.4-1.608-5.461-1.531-11.272-1.44-16.966a17.443,17.443,0,0,1,.441-4.28,6.683,6.683,0,0,1,.389-1.115c2.14-4.747,8.483-5.4,12.893-8.159,2.439-1.518,7.977-6.408,10.026-1.946a14.67,14.67,0,0,1,.986,3.1c.843,3.969.506,8.626.713,12.374.791,14.164,4.319,28.3,2.685,42.389a44.212,44.212,0,0,0-.571,7.264c.35,6.1,4.164,11.375,5.915,17.212C414.885,497.58,412.719,507.139,408.776,515.363Z" transform="translate(3.696 76.52)"/><path class="f" d="M403.384,409.592a4.371,4.371,0,0,0-2.983,0l-8.781,2.594a54.374,54.374,0,0,0-8.963,3.256,21.031,21.031,0,0,0-3.567,2.218,6.683,6.683,0,0,1,.389-1.116c2.14-4.747,8.483-5.4,12.893-8.159,2.439-1.518,7.977-6.408,10.026-1.946a14.672,14.672,0,0,1,.986,3.152Z" transform="translate(3.821 76.514)"/><path class="o" d="M407.936,433.906a3.969,3.969,0,0,0-3.554-.285l-8.781,2.594a54.376,54.376,0,0,0-8.963,3.256,20.594,20.594,0,0,0-4.267,2.776c-4.1-7.121-5.188-15.565-5.941-23.737-.415-4.76-.726-9.534-.908-14.268a63.994,63.994,0,0,1,.208-10.221c.493-3.891,1.621-7.692,2.322-11.557a52.74,52.74,0,0,0,.8-6.849,66.963,66.963,0,0,0-.687-15.033,93.17,93.17,0,0,0-3.606-15.565c-.83-2.322-1.829-4.566-2.737-6.849l-.311-.8a94.553,94.553,0,0,1-4.008-12.854c-.415-1.79-.441-3.671-1.816-4.89a24.413,24.413,0,0,1,3.891-.156h.778a29.093,29.093,0,0,1,14.839,5.188,34.671,34.671,0,0,1,12.3,16.265c2.737,7.3,3.191,15.241,3.541,23.036q1.051,22.984,1.3,45.994c0,2.944.13,6.083,1.816,8.509a17.364,17.364,0,0,1,1.3,1.881c.61,1.3.519,2.737,1.012,4.047a20.462,20.462,0,0,0,1.232,2.283,8.366,8.366,0,0,1,.246,7.238Z" transform="translate(-0.16 51.215)"/><path class="n" d="M332.591,290.607c-1.3-.428-2.594-.882-3.891-1.3l2.7.208a5.447,5.447,0,0,1,1.193,1.09Z" transform="translate(-11.149 42.262)"/><path class="n" d="M387.181,337.116c-.259.882-.519,1.764-.8,2.594a49.6,49.6,0,0,1-2.4,6.239,29.031,29.031,0,0,1-6.135,8.9,8.146,8.146,0,0,1-3.061,2.023,9.726,9.726,0,0,1-3.009.285q-5.188,0-10.377-.156a36.873,36.873,0,0,1-8.016-.791,28.627,28.627,0,0,1-8.172-3.684c-9.689-5.993-17.653-15.124-21.065-25.942-.428-1.375-.726-3.022.22-4.1a5.02,5.02,0,0,1,3.308-1.128h.156a20.9,20.9,0,0,0,7.9-2.711,8.12,8.12,0,0,0,3.606-3.684,9.936,9.936,0,0,0-.117-5.733l-2.879-13.075a13.541,13.541,0,0,0-2.3-5.824c.843.3,1.686.571,2.594.8,8.016,2.166,16.784.856,24.645,3.7,3.009,1.1,6.018,3.087,6.926,6.174,1.518,5.188-3.554,10.571-2.1,15.759.973,3.528,4.566,5.565,7.782,7.212l2.166,1.1,6.006,3.048.83.415.13.065c1.894.96,3.891,2.153,4.553,4.19a7.783,7.783,0,0,1-.389,4.319Z" transform="translate(-12.623 42.565)"/><path class="f" d="M403.005,360.8a28.006,28.006,0,0,1-2.387,9.6,39.209,39.209,0,0,0-4.086,16.862c-1,17.511-7.653,38.355,1.881,53.064.233.363.467.726.687,1.1a20.6,20.6,0,0,0-4.267,2.776c-4.1-7.121-5.188-15.565-5.941-23.737-.415-4.76-.726-9.534-.908-14.268a64,64,0,0,1,.208-10.221c.493-3.891,1.621-7.692,2.322-11.557a52.746,52.746,0,0,0,.8-6.849,66.967,66.967,0,0,0-.688-15.033,93.176,93.176,0,0,0-3.606-15.565c-.83-2.322-1.829-4.566-2.737-6.849l-.311-.8a29.03,29.03,0,0,1-6.135,8.9,8.146,8.146,0,0,1-3.061,2.023,9.728,9.728,0,0,1-3.009.285q-5.188,0-10.377-.156a36.863,36.863,0,0,1-8.016-.791,28.627,28.627,0,0,1-8.172-3.684c-9.689-5.992-17.653-15.124-21.065-25.942-.428-1.375-.726-3.022.221-4.1a5.02,5.02,0,0,1,3.307-1.128h.156L339.5,329.166a23.346,23.346,0,0,1,3.372,5.046,3.009,3.009,0,0,0,1.038,1.544,2.66,2.66,0,0,0,1.3.233h36.526a9.482,9.482,0,0,0-1.608-5.461c-.337.078-.791.1-.091-.1a36.759,36.759,0,0,0-4.021-12.024,8.354,8.354,0,0,0-.4-.752,13.826,13.826,0,0,1-1.92-4.2,7,7,0,0,1,4.254,0c1.6.687,2.426,2.413,3.126,4.008.6,1.3,1.193,2.685,1.725,4.047,0,.143.13.3.182.441a29.364,29.364,0,0,1,2.153,8.418c.078,1.064.337,2.413,1.219,2.763a1.156,1.156,0,0,0,.441.1,4.9,4.9,0,0,1,5.3,1.3,11.674,11.674,0,0,1,2.594,5.11,27.966,27.966,0,0,0,1.842,5.5c1.673,3.191-.882,4.618,2.14,6.576a10.534,10.534,0,0,1,3.554,3.191,9.962,9.962,0,0,1,.778,5.9Z" transform="translate(-12.623 49.334)"/><path class="f" d="M334.507,663.9c.61,2.983,1.3,5.941,2.023,8.9l-.078.182c-5.928-2.594-12-5.305-18.47-5.876-6.005-.519-12.53,1.1-16.616,5.461a19.679,19.679,0,0,0-.376-2.828,4.294,4.294,0,0,1,.13-3.282c1.842-3.359,6.291-4.034,9.715-4.293a80.226,80.226,0,0,1,23.672,1.738Z" transform="translate(-19.46 152.962)"/><path class="f" d="M366.242,328.37c.61,0,.389,0,.091.1S365.541,328.578,366.242,328.37Z" transform="translate(-0.102 53.866)"/><path class="f" d="M400.2,651.254a112.642,112.642,0,0,0-16.239,12.569,17,17,0,0,1-5.123,3.749,14.968,14.968,0,0,1-6.174.635,210.109,210.109,0,0,1-24.359-2.412h0a3.126,3.126,0,0,1-1.868-2.789c.1-1.647,1.816-2.594,3.321-3.307,13.347-5.772,27.848-8.275,42.246-10.286a16.927,16.927,0,0,0,4.241-1.3c1.621-.649,1.79.415,2.594,1.608a10,10,0,0,0,1.362,1.531Z" transform="translate(-5.879 148.797)"/><path class="p" d="M321.621,317.818c1.907,1.7,4.086,3.074,6.019,4.721,5.188,4.4,8.457,10.545,11.674,16.538a10.818,10.818,0,0,1-5.954.4,42.7,42.7,0,0,0,.506,17.342,16.084,16.084,0,0,0-5.8,7.2,48.12,48.12,0,0,0-1.894,9.08q-2.8,20.247-5.629,40.495a6.278,6.278,0,0,1-1.3,3.645,6.986,6.986,0,0,0-.986.973,5.383,5.383,0,0,0-.454,2.789c-.078.947-.7,2.075-1.647,1.946a2.049,2.049,0,0,1-1.154-.752,26.481,26.481,0,0,1-2.594-3.217c-7.653,14.683-11.336,30.507-15.383,46.565-2.893,11.44-5.785,23.01-5.928,34.814a150.051,150.051,0,0,0,1.051,16.706l1.141,11.388c.921,9.157,1.842,18.328,2.841,27.485.648,5.811,1.3,11.674,3.385,17.147,3.113,8.314-.337,17.692.986,26.486,1.038,6.887,3.1,14.008,1.025,20.649-.83,2.659-2.283,5.085-3.372,7.653-2.672,6.382-2.944,13.477-3.178,20.39a85.609,85.609,0,0,0,.675,18.159c1.115,6.213,3.619,12.3,3.126,18.574-.687,8.937-7.277,16.577-8.081,25.5-.636,7.121,2.49,14,5.85,20.312,2.477,4.657-.973,10.675-2.283,15.8-2.594,10.039,1.725,20.546,7.017,29.457a1.414,1.414,0,0,0,.674.7c.61.221,1.154-.376,1.557-.882,3.982-5.11,11.038-7.043,17.511-6.485s12.53,3.23,18.47,5.876l8.418-18.743c1.427-3.178,2.88-6.615,2.166-10.026-.506-2.439-2.075-4.5-3.191-6.732-2.594-5.266-2.724-11.4-2.75-17.3l-.156-33.335c6.563-8.249,10.571-18.055,13.1-28.3a90.8,90.8,0,0,1,.778,44.1,40.016,40.016,0,0,0-1.3,6.719c-.506,9.248,6.745,17.07,8.677,26.123a5.615,5.615,0,0,1,.156,2.127,8.017,8.017,0,0,1-1.077,2.464c-3.476,6.3-3.1,13.944-2.594,21.129a210.552,210.552,0,0,0,27.511,2.944,15.458,15.458,0,0,0,6.174-.635,17.045,17.045,0,0,0,5.123-3.761,113.122,113.122,0,0,1,19.288-14.592,44.9,44.9,0,0,0-15.76-15.565c2.088-3.074,6.849-2.828,9.624-5.292a9.079,9.079,0,0,0,2.594-5.11c1.038-5.085-.246-10.377-1.531-15.37-2.49-9.832-4.994-19.7-9.08-28.99a111.4,111.4,0,0,1-4.877-11.738c-3.4-11.181-1.025-23.347-3.593-34.775-.83-3.658-2.166-7.432-1.232-11.077,1.427-5.616,7.783-8.95,9.183-14.579,5.02-20.04,5.915-40.806,8.768-61.261a78.707,78.707,0,0,0,1.025-11.816c0-4.138-.739-8.236-1.038-12.361-1.167-16.512,4.112-32.985,2.763-49.484a62.259,62.259,0,0,0-9.754-28.536c-9.534-14.722-2.88-35.553-1.881-53.064a39.017,39.017,0,0,1,4.073-16.862,27.668,27.668,0,0,0,2.4-9.6,9.923,9.923,0,0,0-.726-6.057,10.234,10.234,0,0,0-3.541-3.191c-3.022-1.972-.467-3.4-2.14-6.589a27.681,27.681,0,0,1-1.842-5.5,11.57,11.57,0,0,0-2.594-5.1,4.9,4.9,0,0,0-5.305-1.3c-1.232,0-1.569-1.634-1.673-2.867-.35-4.514-2.218-8.755-4.047-12.906-.7-1.6-1.531-3.321-3.126-4.008a7.148,7.148,0,0,0-4.267,0,13.788,13.788,0,0,0,1.933,4.216,36.629,36.629,0,0,1,4.41,12.763c-1.3.389,1.3,0,0,0a9.079,9.079,0,0,1,1.7,5.565H353.776a2.594,2.594,0,0,1-1.3-.234,3.113,3.113,0,0,1-1.051-1.544,22.479,22.479,0,0,0-3.372-5.033l-12.841-15.837a3.244,3.244,0,0,0-1.1-1,2.982,2.982,0,0,0-1.621,0C328.327,313.965,325.253,315.7,321.621,317.818Z" transform="translate(-22.463 49.372)"/><path class="f" d="M352.554,482.21a12.375,12.375,0,0,1,6.317,1.634,6.368,6.368,0,0,1,3.139,5.474c-.143,2.451-2.023,4.4-3.385,6.485a17.384,17.384,0,0,0-2,4.1,1.647,1.647,0,0,0-.1,1.051c.156.493.687.739,1.141.96a9.741,9.741,0,0,1,5.72,8.509c-.117,5.059-5.059,9.157-4.786,14.268a29.359,29.359,0,0,0,.545,3.165,24.178,24.178,0,0,1-1.751,12.828c-1.569,4.073-3.71,7.9-5.4,11.933-4.553,10.96-5.539,23.1-5.188,35.021.272,8.094-2.594,15.8-5.188,23.5a337.84,337.84,0,0,0,1.167-46.695c-.182-4.229-.713-8.224-.519-12.465.311-6.732,4.073-12.854,5.033-19.456.545-3.774.182-7.614.272-11.427.182-7.782,2.3-15.461,2.439-23.27C350.194,492.315,349.688,486.633,352.554,482.21Z" transform="translate(-7.311 99.569)"/><path class="q" d="M312.953,319.7a35.569,35.569,0,0,0-7.186,4.747,30.611,30.611,0,0,0-5.681,7.782,99.385,99.385,0,0,0-4.812,10.065c-1.829,4.462-3.346,9.4-2.088,14.06,1.141,4.216,4.371,7.5,6.6,11.246s3.541,8.146,5.253,12.257c2.283,5.487,5.409,10.6,7.666,16.1s3.619,11.674,2.192,17.394c-.415,1.686-3.152,3-3.152,4.721,0,2.854,4.125,5.954,6.862,6.784,3.152.973,6.589-.48,9.17-2.594,4.734-3.749,7.614-9.365,9.741-15.02,3.424-9.08,5.253-18.717,6.9-28.289,1.193-7.03,2.309-14.073,2.944-21.155.584-6.382.765-12.971-.921-19.093a32.426,32.426,0,0,0-8.859-14.735c-3.372-3.243-8.9-7.6-13.8-7.718C319.906,316.237,316.274,317.871,312.953,319.7Z" transform="translate(-21.837 50.266)"/><path class="n" d="M355.6,452.948a6.2,6.2,0,0,1-2.892,4.319,17.032,17.032,0,0,1-4.942,2.023c-3.476,1.012-7.16,1.946-10.675,1.051a21.427,21.427,0,0,1-7.5-4.267l-39.276-30.066a53.035,53.035,0,0,1-8.652-7.679,55.291,55.291,0,0,1-4.1-5.824,28.533,28.533,0,0,1-3.813-7.575,13.863,13.863,0,0,1-.467-3.645,6.862,6.862,0,0,1,.83-3.333c.947-1.582,2.97-1.907,4.631-2.348a48.588,48.588,0,0,1,17.083-1.3,2.322,2.322,0,0,1,2.309,1.569c.869,1.6,1.621,3.256,2.4,4.916a35.539,35.539,0,0,0,4.631,7.925,66.862,66.862,0,0,0,5.772,5.564c4.151,3.891,7.549,8.561,11.972,12.141,5.124,4.138,11.35,6.615,17.186,9.663s11.6,7,14.527,12.906a7.562,7.562,0,0,1,.973,3.956Z" transform="translate(-27.61 73.381)"/><path class="f" d="M386.512,285.1a32.115,32.115,0,1,1-.895-7.523,32.117,32.117,0,0,1,.895,7.523Z" transform="translate(-13.057 31.47)"/><path class="n" d="M386.512,284.1a32.115,32.115,0,1,1-.895-7.523,32.117,32.117,0,0,1,.895,7.523Z" transform="translate(-13.057 31.173)"/><path class="f" d="M300.542,400.741c-1.479.947-3.671.636-5.5.221-7.212-1.608-15.176-2.763-21.752.324a6.862,6.862,0,0,1,.83-3.334c.947-1.582,2.97-1.907,4.63-2.348a48.587,48.587,0,0,1,17.083-1.3,2.322,2.322,0,0,1,2.309,1.569C299.011,397.42,299.763,399.081,300.542,400.741Z" transform="translate(-27.61 73.381)"/><path class="q" d="M287.341,373.3c-1.6,5.188-2.905,10.519-6.031,14.916a11.026,11.026,0,0,0-2.283,4,12.451,12.451,0,0,1-.532,3.217c-.441.882-1.375,1.466-1.751,2.374-.558,1.3.169,2.97-.571,4.19a6.223,6.223,0,0,1-1.232,1.3c-1.764,1.634-2.205,4.241-2.244,6.654s.195,4.877-.6,7.147c6.849-4.086,15.565-2.867,23.347-1.128,2.166.48,4.851.843,6.252-.895s.6-4.021.791-6.109c.259-2.724,2.127-4.981,3.282-7.458,1.3-2.789,1.738-5.9,2.737-8.807,2.062-6.109,6.485-11.09,9.326-16.862a16.2,16.2,0,0,0,1.842-6.408,19.119,19.119,0,0,0-2.218-8.314,113.731,113.731,0,0,0-9.6-17.134c-1.647-2.426-4.488-6.913-7.043-3.035-2.075,3.126-3.372,7.108-4.9,10.532a192.77,192.77,0,0,0-8.574,21.83Z" transform="translate(-27.964 57.149)"/><path class="k" d="M390.862,347.888a26.214,26.214,0,0,1-20.987-8.288,3.217,3.217,0,0,1-.934-1.518,3.048,3.048,0,0,1,.6-2.127c1.557-2.4,4.241-3.982,5.487-6.563s.817-5.551.934-8.379c.208-5.072,2.205-10.091,2.374-15.085a15.763,15.763,0,0,0-.285-3.813,23.9,23.9,0,0,1-1.089-5.746c.169-3.8,3.593-6.758,4.164-10.506.739-4.773-3.217-8.924-7.2-11.674a42.9,42.9,0,0,0-9.806-5.072,31.918,31.918,0,0,0-6.589-1.6,25.682,25.682,0,0,0-12.413,1.388,20.276,20.276,0,0,0-4.618,2.464,6.252,6.252,0,0,0-2.062,2.14,6.964,6.964,0,0,0-.545,3.1c-.078,5.305.519,10.947-2.01,15.565-1.3,2.477-3.5,4.488-4.579,7.108a11.816,11.816,0,0,0-.817,3.411,34.378,34.378,0,0,0-.195,3.658c-.078,6.836,0,14.047,3.476,19.975a52.068,52.068,0,0,1,3.333,5.59,6.368,6.368,0,0,1-.324,6.213,7.069,7.069,0,0,1-2.594,1.945,20.753,20.753,0,0,1-16.59.6,21.025,21.025,0,0,0,4.9-23.451,13.841,13.841,0,0,1-1.79-5.188,13.166,13.166,0,0,1,1.3-4.747,25.942,25.942,0,0,0,.791-15.2c-.791-3.087-2.166-6.07-2.413-9.248a27.977,27.977,0,0,1,.311-7.186,23.347,23.347,0,0,1,15.993-18.406c.662-.22,1.3-.428,2.023-.61a43.143,43.143,0,0,1,9.585-1.025c7.2-.233,14.5-.441,21.441,1.44a28.768,28.768,0,0,1,11.1,5.707,20.04,20.04,0,0,1,5.37,7.095,24.652,24.652,0,0,1,1.517,4.9c.3,1.388.519,2.789.739,4.19,1.569,9.975,3.139,20.144,1.466,30.105-.662,3.891-1.816,7.782-2.335,11.752C386.335,329.95,388.605,339.042,390.862,347.888Z" transform="translate(-14.45 32.208)"/><circle class="r" cx="2.413" cy="2.413" r="2.413" transform="translate(327.915 388.086)"/><circle class="r" cx="2.413" cy="2.413" r="2.413" transform="translate(368.63 386.945)"/><path class="f" d="M339.738,243.372l-5.188-9.793a9.482,9.482,0,0,1,1.077-1.09,4.112,4.112,0,0,1,2.5-.6Z" transform="translate(-9.411 25.201)"/><path class="f" d="M351.692,231.93l-5.876,8.69-3.346-9.534a10.61,10.61,0,0,1,4.527-.856A15.045,15.045,0,0,1,351.692,231.93Z" transform="translate(-7.058 24.71)"/><g class="l" transform="translate(303.14 296.891)"><path d="M336.774,317.654a7.07,7.07,0,0,1-2.594,1.946,20.845,20.845,0,0,1-14.748,1.232,20.2,20.2,0,0,1-1.842,1.959,20.754,20.754,0,0,0,16.59-.6,7.07,7.07,0,0,0,2.594-1.946,5.59,5.59,0,0,0,.83-4.488A4.6,4.6,0,0,1,336.774,317.654Z" transform="translate(-317.59 -246.771)"/><path d="M322.105,286.722a25.548,25.548,0,0,1,.739,5.188,25.848,25.848,0,0,0-.739-7.783c-.791-3.087-2.166-6.07-2.413-9.248a7.767,7.767,0,0,0-.065-1.219,28.925,28.925,0,0,0,.065,3.813C319.939,280.651,321.314,283.635,322.105,286.722Z" transform="translate(-316.995 -259.278)"/><path d="M373.9,299.187a56.751,56.751,0,0,0,.7-10.377,54.092,54.092,0,0,1-.7,7.783c-.662,3.891-1.816,7.782-2.335,11.752a40.941,40.941,0,0,0-.3,6.421,38.3,38.3,0,0,1,.3-3.826C372.082,306.969,373.236,303.117,373.9,299.187Z" transform="translate(-301.651 -254.777)"/><path d="M321.74,302.018a21.327,21.327,0,0,1-1.634-4.008,5.87,5.87,0,0,0-.156,1.427,13.842,13.842,0,0,0,1.79,5.188,19.6,19.6,0,0,1,1.621,6.874A20.1,20.1,0,0,0,321.74,302.018Z" transform="translate(-316.889 -252.044)"/><path d="M364.458,292.92a16.971,16.971,0,0,1,.246,1.79v-.571a15.762,15.762,0,0,0-.285-3.813c-.285-1.362-.752-2.711-.973-4.086a5.753,5.753,0,0,0-.117.934,23.906,23.906,0,0,0,1.128,5.746Z" transform="translate(-304.002 -255.54)"/><path d="M358.119,318.442a6.832,6.832,0,0,1-.558-.661,2.685,2.685,0,0,0-.376,1.738,3.216,3.216,0,0,0,.934,1.518,26.214,26.214,0,0,0,20.987,8.288c-.221-.856-.441-1.7-.649-2.594a26.175,26.175,0,0,1-20.338-8.288Z" transform="translate(-305.833 -246.171)"/><path d="M376.454,281.286a.558.558,0,0,1,0-.143c.739-4.773-3.217-8.924-7.2-11.674a42.894,42.894,0,0,0-9.806-5.072,31.919,31.919,0,0,0-6.589-1.6,25.682,25.682,0,0,0-12.413,1.388,20.274,20.274,0,0,0-4.618,2.464,6.252,6.252,0,0,0-2.062,2.14,6.965,6.965,0,0,0-.545,3.1c0,.895,0,1.79,0,2.7v-.1a6.965,6.965,0,0,1,.545-3.1,6.252,6.252,0,0,1,2.062-2.14,20.271,20.271,0,0,1,4.618-2.464A25.682,25.682,0,0,1,352.86,265.4a31.921,31.921,0,0,1,6.589,1.6,42.89,42.89,0,0,1,9.806,5.072C372.563,274.3,375.818,277.512,376.454,281.286Z" transform="translate(-312.949 -262.572)"/><path d="M332.97,284.131c-1.3,2.477-3.5,4.488-4.579,7.108a11.816,11.816,0,0,0-.817,3.411,34.361,34.361,0,0,0-.195,3.658V300.9a34.4,34.4,0,0,1,.2-3.664,11.818,11.818,0,0,1,.816-3.405c1.077-2.594,3.23-4.631,4.579-7.108,2.088-3.891,2.049-8.366,2.01-12.815a21.636,21.636,0,0,1-2.01,10.221Z" transform="translate(-314.682 -259.203)"/></g><path class="f" d="M386.943,275.883a3.774,3.774,0,0,1-.623.687,5.944,5.944,0,0,1-1.518.908c-3.775,1.634-3.619-3.7-5.59-5.526a6.706,6.706,0,0,0-4.384-1.3q-5.694-.285-11.4-.506c-6.343-.233-12.672-.35-19-.208q-4.553.078-9.08.376c-3.5.233-7.264.688-10.247,2.348a10.857,10.857,0,0,0-2.737,2.14c-.713.778-1.466,1.764-2.451,1.946A23.348,23.348,0,0,1,335.9,258.346a32.1,32.1,0,0,1,44.1,5.513,20.04,20.04,0,0,1,5.37,7.1,24.642,24.642,0,0,1,1.57,4.929Z" transform="translate(-13.76 31.175)"/><path class="s" d="M385.108,281.355c-3.775,1.634-3.619-3.7-5.59-5.526a6.706,6.706,0,0,0-4.384-1.3,345.708,345.708,0,0,0-39.483-.337c-4.682.311-9.819,1.012-12.971,4.488-.8.882-1.647,2.023-2.854,1.985-.4-2.594-.687-5.292-.882-7.951a8.848,8.848,0,0,1,.156-2.983c.324-1.115,1.064-2.062,1.44-3.152a12.634,12.634,0,0,0,.389-4.254,30.741,30.741,0,0,1,15.124-26.149,13.737,13.737,0,0,0,3.152-2.127,9.485,9.485,0,0,1,1.077-1.09,4.112,4.112,0,0,1,2.5-.6h1.842a16.746,16.746,0,0,0,4.864-1.3,10.611,10.611,0,0,1,4.527-.856,15.048,15.048,0,0,1,4.7,1.7,11.373,11.373,0,0,0,2.192.791c1.18.272,2.4.259,3.58.493a17.472,17.472,0,0,1,5.37,2.387,25.619,25.619,0,0,1,5.4,3.891,23.878,23.878,0,0,1,4.177,6.8,48.678,48.678,0,0,1,3.891,10.792c1.051,5.37.532,11.181,3.022,16.058C387.858,276.18,389.246,279.578,385.108,281.355Z" transform="translate(-14.066 24.704)"/><path class="f" d="M319.25,269.3s26.888-24.463,66.929-4.177C386.179,265.123,340.976,254.837,319.25,269.3Z" transform="translate(-13.956 32.686)"/><path class="t" d="M95.292,391.295c-3.658-5.993-9.157-11.479-8.3-18.276,10.065,1.154,19.612-1.3,28.834-5.564s17.783-9.806,26.421-15.241c3.4-2.14,6.784-4.241,10.156-6.187,5.344-3.061,10.649-6.485,16.084-9.482,7.782-4.28,15.721-7.782,24.463-8.457a44.65,44.65,0,0,1,4.76-.117c10.766.208,21.921,3.1,31.389-1.725l.584-.311c5.37-2.944,9.274-7.951,13.879-12.011a61.989,61.989,0,0,1,10.753-7.471c6.991-3.891,14.566-7,21.713-10.675a32.929,32.929,0,0,0,5.188-3.321l1.219-.973.272-.233c.3-.246.6-.493.882-.752l.558-.493.571-.519.441-.415.713-.674.078-.091,1.128-1.115.454-.454.791-.817.467-.467c.791-.817,1.582-1.647,2.387-2.452s1.894-1.894,2.867-2.789h0l.934-.83.272-.233.752-.623.35-.3.739-.571.363-.285c.363-.272.739-.532,1.115-.791a8.122,8.122,0,0,1,1.09-.636l-2.425-5.876,6.978-2.879,96.243,233.539-6.991,2.88-55.048-133.6-.389.389a110.512,110.512,0,0,1-45.514,27.083h-.1c-9.585,2.893-20.312,4.942-28.38,10.312a27.238,27.238,0,0,0-7.329,7.017c-1.894,2.7-3.217,5.772-5.188,8.366-.376.48-.791.947-1.206,1.388a45.1,45.1,0,0,1-7.782,6.174l-1.232.843a252.241,252.241,0,0,1-26.071,16.071,102.857,102.857,0,0,1-16.2,6.745c-4.06,1.3-8.249,2.244-12.309,3.528a48.2,48.2,0,0,0-7.925,3.191c-6.875,3.593-12.154,9.222-17.147,15.228-4.371,5.266-8.522,10.844-13.321,15.643-3.009,2.983-7.588,5.811-11.22,4.06l-.739-.428c.117-.195.208-.389.311-.6,2.867-6.005-.661-13.425-5.409-18.237-.493-.506-1-1-1.518-1.466s-1.453-1.3-2.192-1.946c-4.06-3.489-8.379-6.732-11.194-11.233a36.642,36.642,0,0,1-4.306-12.206c-1.3-6.109-2.166-12.4-5.487-17.6-2.179-3.437-5.422-6.369-7.782-9.663A14.722,14.722,0,0,1,95.927,416c-.532-4.216,1.427-8.34,2.166-12.543a15.656,15.656,0,0,0,.272-3.476,18.405,18.405,0,0,0-3.074-8.69Z" transform="translate(-82.982 35.691)"/><rect class="u" width="7.432" height="248.352" transform="translate(314.906 534.461) rotate(157.6)"/><path class="v" d="M108.27,429.211c3.256,5.123,4.125,11.3,5.383,17.3a36.447,36.447,0,0,0,4.241,12.011c2.776,4.423,7.017,7.614,11,11.038.726.636,1.453,1.3,2.153,1.92.506.454,1.012.947,1.492,1.427,4.669,4.734,8.133,12.037,5.318,17.939a4.942,4.942,0,0,1-.3.584,5.929,5.929,0,0,0,.713.415c3.58,1.738,8.081-1.038,11.038-3.982,4.721-4.721,8.807-10.195,13.1-15.37,4.9-5.915,10.1-11.453,16.862-14.981a46.692,46.692,0,0,1,7.782-3.139c3.982-1.3,8.107-2.218,12.1-3.463a101.865,101.865,0,0,0,15.928-6.628,249.712,249.712,0,0,0,25.682-15.811l1.219-.83a44.553,44.553,0,0,0,7.653-6.057c.415-.441.817-.895,1.193-1.375,2-2.594,3.308-5.565,5.188-8.223a26.8,26.8,0,0,1,7.212-6.9c7.938-5.279,18.47-7.3,27.9-10.143h.1a108.877,108.877,0,0,0,44.749-26.629,7.29,7.29,0,0,0,2.244-3.295c.4-1.829-.584-3.645-1.531-5.253-1.1-1.894-2.179-3.788-3.243-5.707a254.87,254.87,0,0,1-12.789-26.888c-.817-2.023-1.608-4.034-2.374-6.07q-2.944-7.782-5.37-15.785c-.532-1.764-1.051-3.541-1.544-5.318-.091-.337-.195-.7-.285-1.09-2.153-8.651-5.033-28.9-13.9-22.842a51.331,51.331,0,0,0-7.328,6.369c-1.725,1.751-3.411,3.554-5.188,5.292a52.464,52.464,0,0,1-4.579,4.008A33.636,33.636,0,0,1,274.906,295c-7.043,3.606-14.488,6.628-21.35,10.493a60.693,60.693,0,0,0-10.584,7.341c-4.527,4-8.366,8.924-13.645,11.816l-.571.311c-9.313,4.734-20.273,1.894-30.87,1.686a46.569,46.569,0,0,0-4.669.117c-8.6.649-16.46,4.1-24.061,8.314-5.344,2.957-10.558,6.3-15.811,9.326-3.321,1.907-6.641,3.969-9.988,6.083-8.483,5.344-17.083,10.947-25.942,14.994-9.08,4.125-18.457,6.589-28.354,5.461-.843,6.68,4.553,12.076,8.159,17.965a17.835,17.835,0,0,1,3.048,8.522,15.058,15.058,0,0,1-.246,3.411c-.726,4.138-2.594,8.185-2.127,12.348a14.333,14.333,0,0,0,2.789,6.525C102.939,422.946,106.117,425.839,108.27,429.211Z" transform="translate(-82.367 37.997)"/><path class="n" d="M307.24,414.71s11.362,9.91,22.881,15.189,3.891,24.216,3.891,24.216-12.205,2.8-20.753-9.08S307.24,414.71,307.24,414.71Z" transform="translate(-17.628 79.516)"/><path class="w" d="M799.129,544.812s-30.092,39.6-55.061,39.924-39.626,16.68-27.771,26.9S857.341,605.8,857.341,605.8s1.219-48.667-9.975-55.774S799.129,544.812,799.129,544.812Z" transform="translate(102.757 118.099)"/><path class="w" d="M1031.556,583.6s4.6,31.363-9.624,52.752,25.708,29.638,25.708,29.638,29.016,8.081,31.13-20.585,1.427-50.586-1.3-52.921-4.994-18.458-4.994-18.458Z" transform="translate(193.885 126.847)"/><path class="d" d="M677.45,703.691s-1.051-101.445,99.33-142.679l23.308-44.347,11.181-27.239a66.281,66.281,0,0,1,46.812-39.509l18.081-4.06,5.59-23.555a66.254,66.254,0,0,1,52.934-49.989,185.364,185.364,0,0,1,33.335-3.113,28.691,28.691,0,0,1,24.372,14.268h0s95.1-1.051,99.317,50.729c0,0,9.521,47.538,23.256,55.995,0,0,23.244-5.279,46.487,28.536l25.358,86.645S1253.379,667.71,1233.3,724.7c0,0-27.472,39.094-166.947,12.672,0,0-148.983,45.4-228.286-16.862C838.055,720.592,705.986,745.95,677.45,703.691Z" transform="translate(92.457 65.996)"/><path class="x" d="M728.77,643.115s21.142-29.586,20.079-50.729,4.981-72.636,4.981-72.636" transform="translate(107.703 110.721)"/><path class="x" d="M788.24,576.068s21.129-39.094,19.015-60.223c0,0,22.193-40.21,39.094-36.993" transform="translate(125.371 98.517)"/><path class="x" d="M877.85,476.93s58.109-21.129,61.287-38.03" transform="translate(151.992 86.702)"/><path class="x" d="M894.14,513.688s61.287-27.472,61.287-34.878h30.624s44.386,58.122,39.107,83.48" transform="translate(156.831 98.559)"/><path class="x" d="M993.591,538.388s-59.173-4.228-80.315,12.685S854.1,576.431,854.1,576.431s-22.193,47.551-30.65,55.995-22.193,38.043-22.193,38.043" transform="translate(129.239 116.119)"/><path class="x" d="M949.54,581.46s6.33,22.18,14.787,34.865,21.129,58.109,21.129,58.109" transform="translate(173.289 129.054)"/><path class="x" d="M1026.11,631.15s13.412,37.317,25.2,37.68" transform="translate(196.037 143.816)"/><path class="x" d="M958.38,507.66s34.84,9.417,49.406,32.232,59.056,43.5,59.056,43.5" transform="translate(175.916 107.13)"/><path class="x" d="M969.9,421s0,48.6,13.736,48.6,44.386,5.279,44.386,5.279" transform="translate(179.338 81.385)"/><path class="x" d="M922.92,376.5s-3.515,83.96-21.48,105.7" transform="translate(159 68.165)"/><g class="y" transform="translate(837.459 434.184)"><path d="M1121.725,604.592l-25.358-86.645c-23.244-33.815-46.487-28.536-46.487-28.536-13.736-8.457-23.244-56.008-23.244-56.008-4.229-51.779-99.33-50.716-99.33-50.716h0a28.691,28.691,0,0,0-24.424-14.268c-4.488,0-9.08.143-13.671.519q3.891.389,7.458,1.1l7.393,12.685s95.089-1.064,99.317,50.716c0,0,9.521,47.551,23.257,56.008,0,0,23.244-5.292,46.487,28.536l25.358,86.645s66.566,62.338,46.487,119.331c0,0-13.555,19.288-69.939,21.622,76.022,2.789,93.182-21.622,93.182-21.622C1188.291,666.93,1121.725,604.592,1121.725,604.592Z" transform="translate(-682.092 -368.42)"/><path d="M797.225,639.29A493.39,493.39,0,0,1,729.53,646.7c26.473,1.012,54.01-1.855,71.754-4.293C799.909,641.352,798.56,640.341,797.225,639.29Z" transform="translate(-729.53 -287.95)"/><path d="M980.531,652.33A433.967,433.967,0,0,1,880.76,668.1c48.705,1.764,94.843-8.392,113.858-13.269C990.026,654.068,985.369,653.2,980.531,652.33Z" transform="translate(-684.603 -284.076)"/></g><path class="d" d="M306.73,782.987s29.068-.895,37.823-7.134,44.7-13.684,46.876-3.684,43.673,49.743,10.857,50.015-76.229-5.11-84.972-10.442S306.73,782.987,306.73,782.987Z" transform="translate(-17.676 184.257)"/><path class="z" d="M402.883,815.1c-32.816.272-76.242-5.111-84.985-10.377-6.654-4.06-9.313-18.613-10.2-25.319h-.973s1.842,23.438,10.584,28.756,52.169,10.7,84.972,10.441c9.482-.078,12.75-3.45,12.569-8.444C413.544,813.163,409.926,815.044,402.883,815.1Z" transform="translate(-17.676 187.858)"/><path class="d" d="M883.845,730.891s-34.23-6.849-43.348-15.98-50.2-25.086-54.763-13.684-61.6,50.2-22.816,57.071,91.263,9.08,102.677,4.566S883.845,730.891,883.845,730.891Z" transform="translate(113.856 163.459)"/><path class="z" d="M762.916,746.356c38.8,6.836,91.263,9.08,102.677,4.553,8.677-3.476,14.722-20.17,17.108-27.939l1.141.246s-6.849,27.368-18.25,31.934-63.881,2.283-102.677-4.566c-11.194-1.972-14.4-6.615-13.191-12.478C750.685,741.972,754.589,744.917,762.916,746.356Z" transform="translate(113.858 171.094)"/><path class="b" d="M619.414,151.144h-8.146a5.707,5.707,0,0,0,0-11.414h-66a5.707,5.707,0,1,0,0,11.414h8.146a5.707,5.707,0,0,0,0,11.4h-11.4a5.707,5.707,0,1,0,0,11.414h66a5.707,5.707,0,0,0,0-11.414h11.4a5.707,5.707,0,1,0,0-11.4Z" transform="translate(50.527 -2.175)"/><path class="b" d="M817.049,305.953H808.9a5.707,5.707,0,0,0,0-11.4h-66.06a5.707,5.707,0,1,0,0,11.4h8.146a5.707,5.707,0,0,0,0,11.4h-11.4a5.707,5.707,0,1,0,0,11.414H805.57a5.707,5.707,0,0,0,0-11.414h11.479a5.707,5.707,0,1,0,0-11.4Z" transform="translate(109.221 43.818)"/><path class="b" d="M524.21,277.313h-8.146a5.707,5.707,0,1,0,0-11.4H450.056a5.707,5.707,0,1,0,0,11.4H458.2a5.707,5.707,0,1,0,0,11.4H446.787a5.707,5.707,0,0,0,0,11.414h66a5.707,5.707,0,0,0,0-11.414h11.4a5.707,5.707,0,1,0,0-11.4Z" transform="translate(22.237 35.309)"/></g></svg>