<svg width="26" height="36" viewBox="0 0 26 36" fill="none" xmlns="http://www.w3.org/2000/svg">
<path d="M25.9358 33.5096L25.343 30.5322C25.2862 30.2465 25.0086 30.0608 24.7229 30.118C24.4372 30.1749 24.2519 30.4525 24.3087 30.7381L24.8984 33.7002C24.9257 33.9031 24.956 34.3714 24.7148 34.6492C24.3032 35.1233 23.4183 34.8788 21.1584 34.9452V29.9748C21.1584 29.6835 20.9223 29.4475 20.631 29.4475C20.3397 29.4475 20.1037 29.6835 20.1037 29.9748V34.9452H5.91038V29.9748C5.91038 29.6835 5.67434 29.4475 5.38304 29.4475C5.09173 29.4475 4.85569 29.6835 4.85569 29.9748V34.9452H2.19225C1.33683 34.9452 0.979989 34.5695 1.09678 33.7002L2.63016 25.9991C2.96344 24.3298 4.5113 24.061 4.59371 24.0232L9.85211 22.7267C10.7051 25.9526 15.307 25.9262 16.1451 22.7205L21.401 24.0231C21.4907 24.0643 23.0328 24.3356 23.3649 25.9988L23.8208 28.2882C23.8777 28.5739 24.1555 28.7593 24.4409 28.7024C24.7266 28.6456 24.912 28.3679 24.8551 28.0823L24.3992 25.7926C24.0605 24.0956 22.8252 23.4002 22.1191 23.1366C21.7477 23.0004 20.0331 22.6095 16.2511 21.6602V20.8467C18.4869 19.6777 19.9974 17.3373 19.9974 14.6488V14.5515C21.7616 14.2255 22.577 12.4409 21.5736 11.1506V7.40741C21.5736 7.36192 21.5673 6.27918 21.0247 5.06375C20.5179 3.92849 19.4341 2.45614 17.1489 1.88886C15.4147 1.45833 14.4626 0.830581 13.9695 0.379877C13.4153 -0.126515 12.5795 -0.126655 12.0255 0.379877C11.5323 0.830581 10.5803 1.45833 8.84608 1.88886C7.78738 2.15168 6.89061 2.63276 6.18059 3.31873C5.97106 3.52109 5.96537 3.85494 6.16773 4.0644C6.37009 4.27386 6.704 4.27963 6.91332 4.07727C7.48813 3.52194 8.22388 3.13001 9.10011 2.91261C11.0491 2.42872 12.1537 1.69163 12.737 1.15852C12.8855 1.02268 13.1094 1.02282 13.2578 1.15852C13.8412 1.69163 14.9456 2.42872 16.8948 2.91261C20.4572 3.79693 20.518 7.26201 20.5188 7.40755V10.3746C20.3536 10.309 20.1791 10.2582 19.9974 10.2246C19.9524 9.99836 20.27 8.6118 18.9852 7.94896C18.9852 7.94889 18.9851 7.94889 18.9851 7.94889C13.5675 5.15523 8.82526 6.95355 7.03784 7.85643C6.40784 8.17467 6.01648 8.81177 6.01648 9.51911V10.2246C5.82783 10.2595 5.64699 10.3129 5.4762 10.3821C5.48155 7.49713 5.38044 7.06851 5.74958 5.9665C5.84211 5.69038 5.69319 5.39148 5.41707 5.29902C5.14102 5.20656 4.84205 5.35541 4.74959 5.63153C4.42531 6.59952 4.42158 7.375 4.42158 7.40755V11.1762C3.43995 12.4764 4.27941 14.2306 6.01655 14.5516C6.02591 14.596 5.87811 17.4722 8.22064 19.708C8.6852 20.1514 9.19764 20.5213 9.74418 20.8162V21.6672C4.08042 23.0639 4.332 23.0011 4.30676 23.0084C4.27667 23.0222 2.06822 23.4272 1.59586 25.793L0.0593157 33.5096C0.0574172 33.5192 0.0557297 33.5288 0.0543938 33.5386C-0.147544 34.9638 0.605293 36 2.19225 36H23.8029C24.5566 36 25.1313 35.7782 25.5111 35.3408C25.9445 34.8417 26.0477 34.0691 25.9358 33.5096ZM19.9975 11.3062C21.274 11.6857 21.2678 13.0919 19.9975 13.4694V11.3062ZM6.01648 13.4696C4.74312 13.0911 4.74361 11.6846 6.01648 11.3063V13.4696ZM15.1914 22.0381C15.1187 23.192 14.1551 24.096 12.9978 24.096C11.8457 24.096 10.8825 23.1963 10.805 22.0478C10.7944 21.8915 10.801 21.6198 10.799 21.2799C12.177 21.7405 13.7301 21.7719 15.1965 21.2914C15.1944 21.6539 15.2011 21.8877 15.1914 22.0381ZM7.07117 14.5568C7.07117 13.3956 7.07117 10.6852 7.07117 9.5189C7.07117 9.21185 7.24063 8.93545 7.51337 8.79764C8.49943 8.29961 10.4635 7.50536 12.9546 7.50536C14.6142 7.50536 16.5083 7.85819 18.5018 8.88616C18.7738 9.0265 18.9428 9.30283 18.9428 9.60728C18.9428 11.1518 18.9428 13.1725 18.9428 14.6488C18.9428 16.8318 17.7518 18.9818 15.4813 20.0331C11.4618 21.8967 7.07117 18.8384 7.07117 14.5568Z" fill="white"/>
</svg>
