<svg width="26" height="36" viewBox="0 0 26 36" fill="none" xmlns="http://www.w3.org/2000/svg">
<path d="M24.4036 25.7911C23.9291 23.4142 21.6993 23.0096 21.6923 23.0064V23.0065C21.6683 22.9994 21.8969 23.0567 16.2543 21.6581V21.4666H20.408C21.2642 21.4666 21.9607 20.77 21.9607 19.9139V11.9921C22.0305 11.6976 22.0307 11.3913 21.9607 11.0962V8.20499C21.9607 7.91362 21.7245 7.67758 21.4333 7.67758C21.1419 7.67758 20.9059 7.91362 20.9059 8.20499V9.71861C20.6274 9.55239 20.3094 9.43321 19.9667 9.37422C19.843 8.82458 19.3865 8.39005 18.8076 8.31404C18.2042 8.23473 17.7469 7.88296 17.4484 7.26857C17.3087 6.98092 17.035 6.79199 16.7165 6.76302C16.3977 6.73419 16.0959 6.87039 15.9069 7.12759C15.0003 8.36144 12.48 11.1289 8.12784 11.1287C7.79674 11.1287 7.57223 11.113 7.49404 11.1095C6.69431 11.0614 6.01812 11.7004 6.01812 12.5017V13.7136C6.01812 15.6505 6.82165 17.5282 8.22255 18.8653C8.68718 19.3087 9.19969 19.6787 9.74622 19.9736V20.4119H5.6115C5.33693 20.4119 5.11354 20.1886 5.11354 19.9141V8.06289C5.11354 4.2208 8.24618 1.05491 12.0303 1.05491C12.0425 1.05491 12.0547 1.05498 12.0669 1.05505C13.4227 1.0623 14.988 1.4474 16.0547 2.03584C16.7308 2.40899 17.1484 2.11241 17.816 2.11241C19.4455 2.11241 20.7513 3.78796 20.9078 5.29497C20.9088 5.31705 20.9111 5.40543 20.9114 5.74405C20.9118 6.25319 21.4868 6.29228 21.4393 6.27105C21.7306 6.27083 21.9665 6.03444 21.9663 5.74321C21.9662 5.64955 21.967 5.28231 21.9582 5.19709C21.7461 3.09918 19.9566 1.05758 17.8161 1.05758C16.98 1.05758 16.8498 1.26951 16.5644 1.11229C15.3548 0.444952 13.5916 0.00838127 12.0726 0.000225021C7.69408 -0.0281109 4.05865 3.61949 4.05865 8.06282V19.914C4.05865 20.7702 4.75523 21.4667 5.61143 21.4667H9.74622V21.6582L4.32949 23.0006C4.32232 23.0024 4.31529 23.0044 4.30819 23.0065L3.91247 23.1232C3.90058 23.1267 3.88891 23.1306 3.87731 23.1349C3.17109 23.3984 1.93577 24.0939 1.59679 25.7914C-0.00844002 33.855 0.0591305 33.5107 0.0552633 33.5383C-0.138096 34.906 0.546537 35.9999 2.19347 35.9999H7.89687C8.18824 35.9999 8.42428 35.7638 8.42428 35.4725C8.42428 35.1812 8.18817 34.9451 7.89687 34.9451H5.91215V29.9705C5.91215 29.6791 5.67604 29.4431 5.38474 29.4431C5.09344 29.4431 4.85733 29.6792 4.85733 29.9705V34.9451H2.19347C1.49287 34.9451 1.08604 34.7196 1.07929 33.9836C1.07634 33.6246 1.06221 33.9745 2.6313 25.9976C2.86748 24.8148 3.72642 24.3207 4.22965 24.1294L4.59541 24.0215L7.70604 23.2505C11.1663 27.327 10.9614 27.111 11.1614 27.306C12.3164 28.4326 13.9643 28.3531 15.049 27.0793L18.3062 23.2534L21.4049 24.0214C21.4946 24.0626 23.0371 24.334 23.3692 25.9974C24.9248 33.9053 24.9242 33.6229 24.9213 33.9832C24.9159 34.704 24.526 34.9452 23.8071 34.9452H21.1622V29.9705C21.1622 29.6791 20.9261 29.4431 20.6347 29.4431C20.3434 29.4431 20.1073 29.6792 20.1073 29.9705V34.9451H10.3582C10.0668 34.9451 9.83074 35.1812 9.83074 35.4725C9.83074 35.7639 10.0668 35.9999 10.3582 35.9999H23.8072C25.1102 35.9999 25.9642 35.283 25.9762 33.9916C25.9806 33.3885 25.9447 33.6767 24.4036 25.7911ZM20.0012 10.4623C20.4417 10.5933 20.7813 10.8835 20.9059 11.242V11.8463C20.7813 12.2048 20.4417 12.495 20.0012 12.626V10.4623ZM20.0012 13.8054V13.708C20.3309 13.6471 20.6369 13.5304 20.9059 13.3697V19.914C20.9059 20.1886 20.6826 20.4118 20.4081 20.4118H16.2543V20.0042C18.4905 18.8351 20.0012 16.4943 20.0012 13.8054ZM8.95092 18.1021C7.75751 16.963 7.07308 15.3634 7.07308 13.7134C7.10444 12.5651 6.99708 12.4259 7.18031 12.2534C7.24521 12.1922 7.33247 12.1567 7.43069 12.1623C11.2124 12.39 14.465 10.7275 16.6125 7.94399C17.1915 8.96071 18.0407 9.27726 18.6703 9.36001C18.8276 9.38069 18.9464 9.51498 18.9464 9.67255C18.9464 11.1316 18.9464 12.3569 18.9464 13.8055C18.9464 19.0533 12.6638 21.6458 8.95092 18.1021ZM14.2457 26.3955C13.5108 27.2587 12.4822 27.2564 11.7491 26.3911L10.6486 25.0922H15.3552L14.2457 26.3955ZM16.2534 24.0373H9.75501L8.84861 22.9675L10.4007 22.5827C10.6361 22.5244 10.8012 22.308 10.8012 22.0656L10.8013 20.4339C12.2525 20.9176 13.7851 20.9124 15.1995 20.4489C15.2094 22.1347 15.1768 22.0961 15.2288 22.2448C15.2864 22.4092 15.4234 22.5389 15.5999 22.5826L17.1622 22.9698L16.2534 24.0373Z" fill="#F2F2F2"/>
</svg>
