<svg xmlns="http://www.w3.org/2000/svg" width="586.748" height="408.232" viewBox="0 0 586.748 408.232"><defs><style>.a{fill:#e6e6e6;}.b{fill:#2f2e41;}.c{fill:#262125;}.d{fill:#363636;}.e{fill:#fff;}.f{fill:#c66705;}.g{fill:#ffb8b8;}.h{fill:#bd7e1e;}.i{fill:#ba7c1e;}</style></defs><ellipse class="a" cx="116.906" cy="8.879" rx="116.906" ry="8.879" transform="translate(0 390.474)"/><path class="b" d="M324.272,274.676c20.345-8.653,45.685-3.171,70.433.635.23-4.608,3.022-10.217.1-13.431-3.552-3.906-3.225-8.01-1.088-12.137,5.466-10.555-2.365-21.786-10.273-31.124a17.513,17.513,0,0,0-14.617-6.135l-14.648,1.046A17.543,17.543,0,0,0,338.6,226.068h0c-3.5,4.757-5.37,9.5-4.191,14.22-5.239,3.58-6.119,7.9-3.765,12.774a7.343,7.343,0,0,1-.091,8.957,41.354,41.354,0,0,0-6.149,12.213Z" transform="translate(-234.911 -184.096)"/><path class="c" d="M827.063,641.6H412.4a13.9,13.9,0,0,1-13.9-13.9h0q225.471-26.2,442.466,0h0a13.9,13.9,0,0,1-13.9,13.9Z" transform="translate(-254.218 -288.695)"/><path class="d" d="M840.966,529.626,398.5,528.808l51.28-86.285.245-.409V251.953A17.575,17.575,0,0,1,467.6,234.377H769.411a17.575,17.575,0,0,1,17.576,17.578V443.423Z" transform="translate(-254.218 -189.803)"/><path class="e" d="M489.338,250.957a5.731,5.731,0,0,0-5.725,5.725V430.07a5.732,5.732,0,0,0,5.725,5.725H794.4a5.732,5.732,0,0,0,5.725-5.725V256.682a5.732,5.732,0,0,0-5.725-5.725Z" transform="translate(-276.354 -194.115)"/><path class="c" d="M486.661,531.718a2.46,2.46,0,0,0-2.229,1.428l-15.8,34.35a2.454,2.454,0,0,0,2.229,3.479H803.147a2.453,2.453,0,0,0,2.194-3.551l-17.175-34.35a2.441,2.441,0,0,0-2.194-1.356Z" transform="translate(-272.399 -267.138)"/><circle class="e" cx="3.68" cy="3.68" r="3.68" transform="translate(360.608 46.618)"/><path class="c" d="M649.444,593.619a2.457,2.457,0,0,0-2.369,1.815l-3.964,14.722a2.453,2.453,0,0,0,2.369,3.092h75.378a2.453,2.453,0,0,0,2.318-3.256l-5.1-14.722a2.455,2.455,0,0,0-2.319-1.651Z" transform="translate(-317.816 -283.238)"/><path class="b" d="M601.513,337.135v3.271H264.306l.254-.408v-2.863Z" transform="translate(-68.743 -87.686)"/><circle class="f" cx="57.251" cy="57.251" r="57.251" transform="translate(466.113)"/><path class="e" d="M925.065,272.861H877.629a3.275,3.275,0,0,1-3.272-3.271V240.964a3.275,3.275,0,0,1,3.271-3.271h47.436a3.275,3.275,0,0,1,3.271,3.271v28.625a3.275,3.275,0,0,1-3.271,3.271Zm-47.436-31.9v28.625h47.439l0-28.625Z" transform="translate(-377.983 -190.665)"/><path class="e" d="M920.381,231.764H890.938V218.678c0-9.478,6.192-16.357,14.722-16.357s14.722,6.879,14.722,16.357Zm-26.172-3.271h22.9v-9.815c0-7.7-4.708-13.086-11.45-13.086s-11.45,5.381-11.45,13.086Z" transform="translate(-382.296 -181.465)"/><circle class="e" cx="3.271" cy="3.271" r="3.271" transform="translate(520.093 60.522)"/><path class="a" d="M772.41,397.657H536.645a4.371,4.371,0,0,1-4.366-4.366V334.807a4.371,4.371,0,0,1,4.366-4.366H772.41a4.371,4.371,0,0,1,4.366,4.366V393.29A4.371,4.371,0,0,1,772.41,397.657ZM536.645,332.188a2.622,2.622,0,0,0-2.62,2.62V393.29a2.622,2.622,0,0,0,2.62,2.62H772.41a2.623,2.623,0,0,0,2.62-2.62V334.807a2.622,2.622,0,0,0-2.62-2.62Z" transform="translate(-289.012 -214.788)"/><circle class="a" cx="17.785" cy="17.785" r="17.785" transform="translate(266.481 129.232)"/><path class="a" d="M642.161,356.8a2.964,2.964,0,0,0,0,5.928H781.9a2.964,2.964,0,0,0,0-5.928Z" transform="translate(-316.82 -221.645)"/><path class="a" d="M642.161,380.842a2.964,2.964,0,0,0,0,5.928h60.13a2.964,2.964,0,1,0,0-5.928Z" transform="translate(-316.82 -227.897)"/><path class="g" d="M451.508,373.53,407.925,396.7l-.552-19.309c14.225-2.375,27.759-6.509,40.273-13.24L452.2,352.89a7.634,7.634,0,0,1,12.975-1.981h0a7.634,7.634,0,0,1-.672,10.41Z" transform="translate(-256.525 -219.386)"/><path class="b" d="M322.992,553h0a8.564,8.564,0,0,1,1.087-6.928l9.574-14.693a16.731,16.731,0,0,1,21.705-5.726h0c-4.024,6.849-3.463,12.857,1.39,18.079a87.037,87.037,0,0,0-20.67,14.092A8.564,8.564,0,0,1,322.992,553Z" transform="translate(-234.5 -265.073)"/><path class="c" d="M441.47,514.678h0a16.428,16.428,0,0,1-13.963,7.976l-63.6.482-2.758-16,28.136-8.275-23.722-18.206,25.929-30.343,47.1,43.895a16.428,16.428,0,0,1,2.886,20.47Z" transform="translate(-244.502 -245.966)"/><path class="c" d="M341.478,608.579h-14.9c-13.374-91.673-26.987-183.6,13.24-217.915l47.445,7.724L381.2,438.66,354.718,469Z" transform="translate(-232.006 -230.451)"/><path class="d" d="M358.357,703.981h0a8.564,8.564,0,0,1-6.928-1.087l-16.173-2.174a16.731,16.731,0,0,1-5.728-21.7h0c6.849,4.023,12.857,3.462,18.079-1.391,3.689,7.449,9.768,6.995,15.573,13.27a8.564,8.564,0,0,1-4.822,13.086Z" transform="translate(-235.792 -305.087)"/><path class="g" d="M389.476,294.521l-27.584-6.62c4.581-9.378,4.959-19.812,2.758-30.894l18.757-.552C383.995,270.236,385.772,283.111,389.476,294.521Z" transform="translate(-244.696 -195.545)"/><path class="h" d="M391.263,388.624c-20.08,13.683-34.268.468-45.1-19.921,1.5-12.476-.932-27.407-5.443-43.63a29.7,29.7,0,0,1,18.132-35.812h0l23.722,9.93c20.143,16.419,24.108,34.2,16.55,52.962Z" transform="translate(-238.902 -204.078)"/><path class="g" d="M313.92,318.591l-22.067,11.586,39.17,23.171,5.45,13.444a7.13,7.13,0,0,1-4.284,9.42h0a7.13,7.13,0,0,1-9.442-6.322l-.551-9.37L272.412,344.09a11.641,11.641,0,0,1-7.3-7.112h0a11.641,11.641,0,0,1,4.367-13.542l40.033-27.464Z" transform="translate(-219.344 -205.823)"/><path class="i" d="M350.674,318.75c-9.2-4.033-17.572.348-28.136,3.862l-1.655-29.239c10.489-5.591,20.49-7.1,29.791-2.758Z" transform="translate(-234.03 -203.776)"/><circle class="g" cx="17.611" cy="17.611" r="17.611" transform="translate(110.042 40.17)"/><path class="b" d="M390.715,243.669c-17.437,1.708-30.724-1.144-39.215-9.264v-6.539h37.735Z" transform="translate(-241.993 -188.109)"/></svg>